<?xml version="1.0" encoding="utf-8"?>
<!-- Generator: Adobe Illustrator 27.5.0, SVG Export Plug-In . SVG Version: 6.00 Build 0)  -->
<svg version="1.1" xmlns="http://www.w3.org/2000/svg" xmlns:xlink="http://www.w3.org/1999/xlink" x="0px" y="0px"
	 viewBox="0 0 500 500" style="enable-background:new 0 0 500 500;" xml:space="preserve">
<g id="BACKGROUND">
	<rect style="fill:#FFFFFF;" width="500" height="500"/>
</g>
<g id="OBJECTS">
	<path style="fill:#E1F7FF;" d="M336.887,73.116c-49.988-17.367-103.593-0.35-135.053,38.562
		c-50.036,0.557-96.623,32.064-113.99,82.052c-22.132,63.702,11.567,133.284,75.27,155.416
		c49.988,17.367,103.593,0.35,135.052-38.562c50.036-0.557,96.623-32.064,113.99-82.052
		C434.288,164.83,400.589,95.248,336.887,73.116z"/>
	<ellipse style="fill:#E1F7FF;" cx="250" cy="436.49" rx="206.702" ry="25.959"/>
	<g>
		<g>
			<rect x="100.77" y="433.568" style="fill:#9465E0;" width="149.462" height="16.258"/>
			<polygon style="fill:#6C4AAF;" points="100.77,441.697 250.232,436.698 250.232,433.568 100.77,433.568 			"/>
			<path style="fill:#AB80FF;" d="M250.63,425.749H100.372c-2.196,0-3.975,1.78-3.975,3.976l0,0c0,2.196,1.78,3.976,3.975,3.976
				H250.63c2.196,0,3.976-1.78,3.976-3.976l0,0C254.605,427.529,252.825,425.749,250.63,425.749z"/>
		</g>
	</g>
	<g>
		<path style="fill:#FFB692;" d="M174.344,260.898c-0.164,13.004-1.383,25.958-2.804,38.902c-0.746,6.47-1.587,12.936-2.578,19.395
			c-1.072,6.455-4.899,12.778-5.826,19.239c-0.27,1.614-0.454,3.231-0.376,4.862c0.068,1.63,0.391,3.272,0.847,4.92
			c0.437,1.647,0.98,3.3,1.345,4.944c0.366,1.644,0.567,3.28,0.52,4.904c-0.159,3.245-0.45,6.484-0.921,9.715
			c-0.475,3.23-1.095,6.454-1.801,9.673c-0.69,3.22-1.386,6.44-2.018,9.663l-1.771,9.674c-1.172,6.45-2.298,12.902-3.56,19.348
			c-0.562,2.871-3.346,4.743-6.217,4.18c-2.35-0.46-4.029-2.415-4.254-4.681c-0.642-6.537-1.147-13.067-1.698-19.599l-0.84-9.799
			c-0.322-3.268-0.708-6.54-1.087-9.811c-0.396-3.272-0.706-6.54-0.87-9.801c-0.16-3.261-0.141-6.513,0.01-9.758
			c0.107-1.621,0.464-3.231,0.985-4.832c0.52-1.602,1.219-3.195,1.81-4.793c0.611-1.597,1.09-3.201,1.313-4.817
			c0.234-1.615,0.205-3.243,0.09-4.875c-0.306-6.521-3.513-13.18-3.964-19.707c-0.371-6.524-0.591-13.04-0.716-19.552
			c-0.18-13.021-0.157-26.031,0.92-38.992c0.767-9.225,8.866-16.082,18.092-15.316C167.783,244.715,174.433,252.196,174.344,260.898
			z"/>
		<path style="fill:#9E6461;" d="M170.26,310.084l-29.846,2.026c0.084,1.911,0.155,3.821,0.264,5.733
			c0.263,3.8,1.458,7.645,2.473,11.482c9.561,1.999,16.927,1.805,22.333,0.852c1.356-3.651,2.867-7.295,3.479-10.982
			C169.428,316.159,169.855,313.122,170.26,310.084z"/>
		<path style="fill:#FFB692;" d="M213.653,259.299c1.077,12.96,1.1,25.971,0.92,38.992c-0.125,6.512-0.345,13.028-0.717,19.552
			c-0.451,6.527-3.658,13.187-3.964,19.707c-0.115,1.632-0.144,3.26,0.09,4.875c0.223,1.616,0.701,3.22,1.312,4.817
			c0.592,1.598,1.291,3.191,1.81,4.793c0.521,1.602,0.878,3.211,0.985,4.832c0.151,3.246,0.17,6.498,0.01,9.758
			c-0.164,3.261-0.474,6.529-0.87,9.801c-0.38,3.271-0.765,6.543-1.087,9.811l-0.84,9.799c-0.551,6.532-1.057,13.062-1.698,19.599
			c-0.286,2.912-2.878,5.04-5.79,4.754c-2.383-0.234-4.241-2.019-4.681-4.254c-1.263-6.446-2.388-12.898-3.56-19.348l-1.771-9.674
			c-0.632-3.223-1.328-6.443-2.018-9.663c-0.706-3.219-1.327-6.443-1.801-9.673c-0.471-3.23-0.762-6.47-0.921-9.715
			c-0.048-1.624,0.153-3.26,0.52-4.904c0.364-1.644,0.908-3.296,1.345-4.944c0.456-1.648,0.779-3.29,0.847-4.92
			c0.079-1.63-0.106-3.248-0.376-4.862c-0.927-6.462-4.755-12.785-5.826-19.239c-0.992-6.458-1.833-12.924-2.578-19.395
			c-1.421-12.944-2.64-25.898-2.804-38.902c-0.117-9.256,7.292-16.855,16.548-16.972
			C205.578,243.815,212.911,250.627,213.653,259.299z"/>
		<path style="fill:#9E6461;" d="M184.306,310.084l29.846,2.026c-0.084,1.911-0.155,3.821-0.264,5.733
			c-0.263,3.8-1.458,7.645-2.473,11.482c-9.561,1.999-16.927,1.805-22.333,0.852c-1.356-3.651-2.867-7.295-3.479-10.982
			C185.139,316.159,184.712,313.122,184.306,310.084z"/>
		<path style="fill:#9465E0;" d="M213.268,238.479l-36.001,5.377l-36.001-5.377c0,0-10.283,50.886-3.428,83.052
			c0,0,23.729,9.228,36.121,0L177.267,304l3.308,17.531c12.392,9.228,36.121,0,36.121,0
			C223.551,289.365,213.268,238.479,213.268,238.479z"/>
		<path style="fill:#6C4AAF;" d="M213.795,241.267c-0.326-1.794-0.527-2.788-0.527-2.788l-36.001,5.377l-36.001-5.377
			c0,0-0.55,2.723-1.31,7.3C159.24,257.693,203.689,253.639,213.795,241.267z"/>
		<polyline style="fill:none;stroke:#6C4AAF;stroke-miterlimit:10;" points="181.737,253.639 182.924,285.146 177.519,288.178 
			177.267,304 		"/>
		<g>
			<path style="fill:#FFB692;" d="M154.549,409.939l2.129,9.685c0,0,2.661,6.173,0.319,8.195l-24.882,5.106
				c-2.36,0.484-4.814,0.167-6.973-0.903l-5.287-2.619c-1.223-0.606-1.319-2.311-0.164-3.04c4.486-2.828,13.553-8.352,17.403-9.294
				C142.309,415.792,154.549,409.939,154.549,409.939z"/>
			<g>
				<path style="fill:#D88D87;" d="M133.228,427.1l-1.839,0.993c-4.61,0.966-6.785,2.144-7.773,3.174l1.526,0.756
					c0.032,0.016,0.065,0.027,0.097,0.043c1.467-2.219,6.787-3.345,6.787-3.345L133.228,427.1z"/>
				<path style="fill:#D88D87;" d="M128.994,426.577l-1.307,0.889c0,0-4.378,1.053-5.853,2.918l0.578,0.286
					c0.538-0.689,1.887-1.68,5.249-2.63L128.994,426.577z"/>
				<path style="fill:#D88D87;" d="M125.805,427.021l1.333-1.464l-1.307,0.889c0,0-4.486,1.083-5.901,2.994l0.573,0.284
					C120.998,429.034,122.317,428.007,125.805,427.021z"/>
				<path style="fill:#D88D87;" d="M119.025,428.505c0.781-0.597,2.141-1.297,4.558-1.98l1.333-1.464l-1.307,0.889
					c0,0-2.843,0.683-4.724,1.921C118.891,428.089,118.941,428.301,119.025,428.505z"/>
			</g>
		</g>
		<g>
			<path style="fill:#FFB692;" d="M198.628,409.939l-2.128,9.685c0,0-2.661,6.173-0.319,8.195l24.882,5.106
				c2.36,0.484,4.814,0.167,6.973-0.903l5.287-2.619c1.223-0.606,1.319-2.311,0.164-3.04c-4.486-2.828-13.553-8.352-17.403-9.294
				C210.868,415.792,198.628,409.939,198.628,409.939z"/>
			<path style="fill:none;stroke:#252538;stroke-width:1.1483;stroke-linecap:round;stroke-miterlimit:10;" d="M216.873,432.065"/>
			<path style="fill:none;stroke:#252538;stroke-width:1.1483;stroke-linecap:round;stroke-miterlimit:10;" d="M197.423,428.309"/>
			<g>
				<path style="fill:#D88D87;" d="M219.949,427.1l1.839,0.993c4.61,0.966,6.785,2.144,7.773,3.174l-1.526,0.756
					c-0.032,0.016-0.065,0.027-0.097,0.043c-1.467-2.219-6.787-3.345-6.787-3.345L219.949,427.1z"/>
				<path style="fill:#D88D87;" d="M224.184,426.577l1.307,0.889c0,0,4.378,1.053,5.853,2.918l-0.578,0.286
					c-0.538-0.689-1.887-1.68-5.249-2.63L224.184,426.577z"/>
				<path style="fill:#D88D87;" d="M227.372,427.021l-1.333-1.464l1.307,0.889c0,0,4.486,1.083,5.901,2.994l-0.572,0.284
					C232.179,429.034,230.86,428.007,227.372,427.021z"/>
				<path style="fill:#D88D87;" d="M234.152,428.505c-0.781-0.597-2.141-1.297-4.558-1.98l-1.333-1.464l1.307,0.889
					c0,0,2.843,0.683,4.724,1.921C234.287,428.089,234.236,428.301,234.152,428.505z"/>
			</g>
		</g>
		<g>
			<path style="fill:#FFB692;" d="M209.028,167.274v-15.24c0.197-1.271,0.308-2.566,0.308-3.884
				c0-15.826-14.698-17.155-32.828-17.155s-32.828,1.33-32.828,17.155c0,1.318,0.111,2.613,0.309,3.884v15.24
				c0,10.184-2.654,20.126-7.227,29.226c-3.034,6.037-4.744,12.858-4.744,20.082c0,24.676,19.919,33.368,44.491,33.368
				s44.491-8.692,44.491-33.368c0-7.224-1.71-14.045-4.744-20.082C211.682,187.401,209.028,177.459,209.028,167.274z"/>
			<g>
				<path style="fill:#9E6461;" d="M171.724,141.442c-0.137,0-0.273-0.048-0.383-0.146l-1.894-1.698l-17.11-0.489
					c-0.317-0.009-0.566-0.273-0.557-0.59c0.009-0.317,0.283-0.59,0.59-0.557l17.53,0.501l2.207,1.978
					c0.236,0.212,0.256,0.575,0.044,0.811C172.038,141.378,171.881,141.442,171.724,141.442z"/>
			</g>
			<g>
				<path style="fill:#9E6461;" d="M178.652,141.513c-0.131,0-0.263-0.044-0.371-0.136c-0.242-0.205-0.272-0.567-0.067-0.81
					l1.716-2.028l17.499-0.861c0.327-0.01,0.586,0.228,0.602,0.545c0.016,0.317-0.229,0.587-0.545,0.602l-17,0.836l-1.394,1.648
					C178.977,141.444,178.815,141.513,178.652,141.513z"/>
			</g>
			<g>
				<path style="fill:#9E6461;" d="M161.93,178.094c-4.603,0-9.903-1.736-13.952-8.052c-0.171-0.267-0.093-0.622,0.173-0.793
					c0.267-0.171,0.622-0.094,0.794,0.173c6.355,9.914,15.797,7.952,20.86,5.899c0.294-0.118,0.629,0.022,0.748,0.316
					c0.119,0.294-0.023,0.629-0.316,0.748C168.385,177.135,165.35,178.094,161.93,178.094z"/>
			</g>
			<g>
				<path style="fill:#9E6461;" d="M190.22,178.094c-3.421,0-6.455-0.958-8.306-1.709c-0.294-0.119-0.436-0.454-0.316-0.748
					c0.12-0.294,0.455-0.435,0.748-0.316c5.063,2.053,14.504,4.017,20.86-5.899c0.171-0.267,0.526-0.345,0.794-0.173
					c0.267,0.171,0.344,0.526,0.173,0.793C200.124,176.358,194.823,178.094,190.22,178.094z"/>
			</g>
			<path style="fill:none;stroke:#252538;stroke-width:1.1483;stroke-linecap:round;stroke-miterlimit:10;" d="M132.809,208.154"/>
			<path style="fill:none;stroke:#252538;stroke-width:1.1483;stroke-linecap:round;stroke-miterlimit:10;" d="M140.142,188.651"/>
		</g>
		<g>
			<g>
				<path style="fill:#FFB692;" d="M107.796,263.278l-3.955,16.505l2.298,12.132c0,0,2.488,5.585,4.768,6.359
					c2.28,0.774,1.915-5.553,1.915-5.553l-0.225-6.257l1.012-2.545l1.068,0.626l3.36-6.516l-0.354-10.06L107.796,263.278z"/>
				<path style="fill:#FFB692;" d="M151.736,154.456c0.563-0.43,0.291-0.216,0.273-0.19c-0.034,0.011-0.173,0.168-0.302,0.312
					c-0.126,0.14-0.26,0.273-0.393,0.407c-0.133,0.129-0.292,0.355-0.439,0.526c-0.298,0.379-0.605,0.709-0.909,1.122l-0.915,1.298
					c-0.626,0.819-1.212,1.844-1.819,2.782c-0.624,0.924-1.179,1.97-1.742,3.005c-1.166,2.018-2.188,4.235-3.274,6.404
					c-0.561,1.068-1.024,2.223-1.516,3.355l-1.469,3.408c-3.578,9.26-7.916,18.709-10.053,28.771
					c-0.435,2.542-0.309,5.201-0.395,7.802c-0.049,1.299-0.18,2.58-0.427,3.839c-0.27,1.252-0.537,2.515-0.787,3.778l-1.571,7.575
					l-0.832,3.784c-0.265,1.265-0.489,2.542-0.736,3.813c-0.946,5.094-2.084,10.16-3.069,15.275
					c-0.972,5.117-2.017,10.233-3.244,15.346l-0.034,0.143c-0.685,2.855-3.554,4.614-6.409,3.929
					c-2.413-0.579-4.042-2.723-4.075-5.095c-0.074-5.321,0.032-10.638,0.212-15.955c0.049-2.661,0.259-5.316,0.466-7.969
					c0.201-2.655,0.39-5.314,0.644-7.966c0.125-1.327,0.226-2.655,0.37-3.981l0.486-3.978l1.065-7.948
					c0.198-1.322,0.327-2.654,0.619-3.967c0.278-1.313,0.671-2.603,1.146-3.875c0.964-2.542,2.137-5.026,2.753-7.626
					c2.645-10.374,3.577-21.28,7.135-31.777c1.772-5.252,3.562-10.539,6.146-15.752c0.621-1.306,1.232-2.612,1.993-3.921
					c0.75-1.308,1.384-2.614,2.296-3.926l1.293-1.961c0.453-0.658,0.994-1.333,1.493-1.995c0.267-0.337,0.484-0.652,0.796-1.006
					l0.931-1.048c0.311-0.343,0.607-0.677,1.065-1.102c0.462-0.421,0.652-0.675,1.738-1.503c4.381-3.172,10.505-2.192,13.677,2.189
					C157.097,145.16,156.117,151.283,151.736,154.456z"/>
				<g>
					<path style="fill:#9E6461;" d="M110.385,274.593c0.414,0.701,0.818,1.407,1.183,2.129c0.371,0.719,0.75,1.436,1.094,2.167
						l0.044,0.094l-0.021,0.155c-0.138,1.015-0.131,2.126,0.174,3.062c0.295,0.956,1.004,1.617,1.945,1.81l-0.629,0.306
						c0.952-2.151,1.875-4.314,2.85-6.454l-0.058,0.244c0.101-3.184,0.258-6.365,0.414-9.547l0.003-0.054l0.008-0.036
						c0.659-3.064,1.382-6.114,2.37-9.114c-0.217,3.15-0.698,6.249-1.243,9.334l0.01-0.089c-0.074,3.185-0.147,6.369-0.276,9.552
						l-0.005,0.13l-0.053,0.115c-0.982,2.137-2.015,4.25-3.019,6.376l-0.198,0.418l-0.431-0.112
						c-0.612-0.159-1.223-0.464-1.689-0.935c-0.469-0.466-0.776-1.055-0.949-1.646c-0.177-0.594-0.244-1.195-0.235-1.785
						c0.012-0.595,0.066-1.161,0.215-1.753l0.023,0.249c-0.29-0.754-0.545-1.523-0.808-2.289
						C110.835,276.157,110.605,275.377,110.385,274.593z"/>
				</g>
				<path style="fill:#FFB692;" d="M120.085,264.054"/>
			</g>
		</g>
		<g>
			<g>
				<path style="fill:#FFB692;" d="M246.517,263.278l3.955,16.505l-2.298,12.132c0,0-2.488,5.585-4.768,6.359
					c-2.28,0.774-1.915-5.553-1.915-5.553l0.225-6.257l-1.012-2.545l-1.068,0.626l-3.36-6.516l0.354-10.06L246.517,263.278z"/>
				<path style="fill:#FFB692;" d="M202.577,154.456c-0.563-0.43-0.291-0.216-0.273-0.19c0.034,0.011,0.173,0.168,0.302,0.312
					c0.126,0.14,0.26,0.273,0.393,0.407c0.133,0.129,0.292,0.355,0.439,0.526c0.298,0.379,0.605,0.709,0.909,1.122l0.915,1.298
					c0.626,0.819,1.212,1.844,1.819,2.782c0.624,0.924,1.179,1.97,1.742,3.005c1.166,2.018,2.188,4.235,3.274,6.404
					c0.561,1.068,1.024,2.223,1.516,3.355l1.469,3.408c3.578,9.26,7.917,18.709,10.053,28.771c0.435,2.542,0.309,5.201,0.395,7.802
					c0.049,1.299,0.18,2.58,0.427,3.839c0.27,1.252,0.537,2.515,0.787,3.778l1.571,7.575l0.832,3.784
					c0.265,1.265,0.489,2.542,0.736,3.813c0.946,5.094,2.084,10.16,3.069,15.275c0.972,5.117,2.018,10.233,3.244,15.346l0.034,0.143
					c0.685,2.855,3.554,4.614,6.409,3.929c2.413-0.579,4.042-2.723,4.075-5.095c0.074-5.321-0.032-10.638-0.212-15.955
					c-0.049-2.661-0.259-5.316-0.466-7.969c-0.201-2.655-0.39-5.314-0.644-7.966c-0.125-1.327-0.226-2.655-0.37-3.981l-0.486-3.978
					l-1.065-7.948c-0.197-1.322-0.327-2.654-0.619-3.967c-0.278-1.313-0.671-2.603-1.146-3.875
					c-0.964-2.542-2.137-5.026-2.753-7.626c-2.645-10.374-3.577-21.28-7.135-31.777c-1.772-5.252-3.562-10.539-6.146-15.752
					c-0.621-1.306-1.232-2.612-1.993-3.921c-0.75-1.308-1.384-2.614-2.296-3.926l-1.293-1.961c-0.453-0.658-0.994-1.333-1.493-1.995
					c-0.267-0.337-0.484-0.652-0.796-1.006l-0.931-1.048c-0.311-0.343-0.607-0.677-1.065-1.102
					c-0.462-0.421-0.652-0.675-1.738-1.503c-4.381-3.172-10.505-2.192-13.677,2.189C197.216,145.16,198.196,151.283,202.577,154.456
					z"/>
				<g>
					<path style="fill:#9E6461;" d="M243.928,274.593c-0.22,0.784-0.45,1.564-0.719,2.327c-0.263,0.766-0.519,1.534-0.808,2.289
						l0.023-0.249c0.149,0.592,0.203,1.159,0.215,1.753c0.009,0.59-0.058,1.192-0.235,1.785c-0.173,0.591-0.48,1.18-0.949,1.646
						c-0.466,0.471-1.077,0.775-1.689,0.935l-0.431,0.112l-0.198-0.418c-1.005-2.126-2.038-4.24-3.019-6.376l-0.053-0.115
						l-0.005-0.13c-0.129-3.183-0.202-6.367-0.276-9.552l0.01,0.089c-0.545-3.086-1.026-6.184-1.243-9.334
						c0.988,2.999,1.711,6.05,2.37,9.114l0.008,0.036l0.003,0.054c0.156,3.182,0.313,6.363,0.414,9.547l-0.058-0.244
						c0.975,2.14,1.898,4.303,2.85,6.454l-0.629-0.306c0.941-0.194,1.65-0.854,1.945-1.81c0.305-0.936,0.312-2.047,0.174-3.062
						l-0.021-0.155l0.044-0.094c0.344-0.731,0.723-1.447,1.094-2.167C243.11,276,243.514,275.294,243.928,274.593z"/>
				</g>
				<path style="fill:#FFB692;" d="M234.228,264.054"/>
			</g>
			<path style="fill:none;stroke:#252538;stroke-width:1.1483;stroke-linecap:round;stroke-miterlimit:10;" d="M221.738,193.952"/>
			<path style="fill:none;stroke:#252538;stroke-width:1.1483;stroke-linecap:round;stroke-miterlimit:10;" d="M208.823,163.719"/>
		</g>
		<path style="fill:none;stroke:#252538;stroke-width:1.1483;stroke-linecap:round;stroke-miterlimit:10;" d="M216.873,432.065"/>
		<path style="fill:none;stroke:#252538;stroke-width:1.1483;stroke-linecap:round;stroke-miterlimit:10;" d="M197.423,428.309"/>
		<g>
			<g>
				<path style="fill:#FFB692;" d="M164.291,133.899l21.487,0.022l0.026-25.747c0.006-5.934-4.799-10.749-10.733-10.755h0
					c-5.934-0.006-10.749,4.799-10.755,10.733L164.291,133.899z"/>
				<path style="fill:#252538;" d="M185.038,118.642c-0.006,5.443-4.423,9.851-9.866,9.845l-0.849-0.001
					c-3.075-0.003-5.819-1.415-7.624-3.623c-1.015-1.565-1.606-3.431-1.604-5.436l0.017-16.768c1.441-3.943,5.227-6.757,9.669-6.752
					c5.677,0.006,10.275,4.613,10.269,10.29L185.038,118.642z"/>
			</g>
			<g>
				<path style="fill:#D88D87;" d="M144.751,93.96l58.619,0.061c2.612,0.003,4.732-2.113,4.734-4.725v0
					c0.003-2.612-2.113-4.732-4.725-4.734l-58.619-0.061c-2.612-0.003-4.732,2.113-4.734,4.725l0,0
					C140.024,91.838,142.139,93.958,144.751,93.96z"/>
				<path style="fill:#ECB220;" d="M172.23,95.027c0.139,1.014,1.074,1.723,2.087,1.584s1.723-1.074,1.584-2.088
					c-0.139-1.014-1.074-1.723-2.087-1.584C172.8,93.079,172.091,94.014,172.23,95.027z"/>
				<path style="fill:#9E6461;" d="M203.755,92.016c1.351-0.185,2.37-1.355,2.371-2.722c0.002-1.517-1.231-2.752-2.748-2.754
					l-58.619-0.061c-0.128,0-0.257,0.008-0.383,0.025c-1.351,0.185-2.37,1.355-2.371,2.722c-0.001,1.517,1.231,2.752,2.748,2.754
					l58.619,0.061C203.501,92.042,203.629,92.034,203.755,92.016z"/>
				<path style="fill:#252538;" d="M174.023,131.175L174.023,131.175c14.581,0.015,26.413-11.793,26.428-26.374l0.033-31.963
					c0.014-13.979-11.306-25.322-25.285-25.337l-2.18-0.002c-13.979-0.014-25.323,11.306-25.337,25.285l-0.033,31.963
					C147.633,119.328,159.442,131.161,174.023,131.175z"/>
				<path style="fill:#FFB692;" d="M160.874,97.126l26.339,0.027c4.716,0.005,8.543-3.815,8.548-8.531l0.025-24.558l-43.418-0.044
					l-0.025,24.558C152.338,93.294,156.157,97.122,160.874,97.126z"/>
				<path style="fill:#FFB692;" d="M167.755,114.122l12.605,0.013c2.282,0.002,4.135-1.845,4.138-4.128l0.004-2.904
					c0.005-3.001-2.425-5.437-5.426-5.44l-10.001-0.01c-3.001-0.003-5.438,2.427-5.442,5.429l-0.004,2.904
					C163.626,112.267,165.473,114.119,167.755,114.122z"/>
				<g>
					<g>
						<g>
							<path style="fill:#FFFFFF;" d="M157.012,85.248c0,3.293,2.536,5.05,5.665,5.05c3.128,0,5.665-1.757,5.665-5.05
								c0-3.293-2.536-4.901-5.665-4.901C159.548,80.348,157.012,81.955,157.012,85.248z"/>
							<g>
								<path style="fill:#252538;" d="M168.121,85.248c-0.166-1.359-0.763-2.583-1.803-3.281c-1.03-0.703-2.336-0.987-3.642-0.987
									c-1.307-0.005-2.612,0.28-3.646,0.982c-1.04,0.7-1.639,1.926-1.799,3.286h-0.439c-0.087-0.729-0.006-1.493,0.242-2.226
									c0.268-0.725,0.737-1.394,1.339-1.902c1.217-1.034,2.814-1.39,4.303-1.405c1.491,0.01,3.087,0.367,4.307,1.4
									c0.603,0.509,1.069,1.181,1.34,1.905c0.246,0.735,0.327,1.5,0.237,2.228H168.121z"/>
							</g>
							<path style="fill:#252538;" d="M162.068,81.847c2.809-0.426,5.19,1.96,4.756,4.768c-0.27,1.75-1.702,3.178-3.452,3.444
								c-2.809,0.427-5.191-1.961-4.757-4.769C158.886,83.541,160.318,82.112,162.068,81.847z"/>
						</g>
						<g>
							<path style="fill:#252538;" d="M157.549,75.201l5.358-1.682c1.174-0.369,2.425,0.284,2.793,1.459
								c0.368,1.174-0.285,2.425-1.459,2.793l-5.357,1.682c-1.174,0.369-2.425-0.285-2.793-1.459
								C155.722,76.82,156.375,75.57,157.549,75.201z"/>
						</g>
					</g>
					<g>
						<g>
							<path style="fill:#FFFFFF;" d="M191.12,85.248c0,3.293-2.536,5.05-5.665,5.05c-3.128,0-5.665-1.757-5.665-5.05
								c0-3.293,2.536-4.901,5.665-4.901C188.583,80.348,191.12,81.955,191.12,85.248z"/>
							<g>
								<path style="fill:#252538;" d="M179.571,85.248c-0.09-0.729-0.009-1.493,0.237-2.228c0.271-0.724,0.737-1.396,1.34-1.905
									c1.221-1.033,2.817-1.39,4.307-1.4c1.49,0.015,3.086,0.371,4.303,1.405c0.602,0.508,1.071,1.177,1.339,1.902
									c0.248,0.734,0.329,1.497,0.242,2.226H190.9c-0.16-1.36-0.759-2.586-1.799-3.286c-1.033-0.702-2.339-0.987-3.646-0.982
									c-1.306,0-2.612,0.284-3.642,0.987c-1.04,0.697-1.637,1.922-1.803,3.281H179.571z"/>
							</g>
							<path style="fill:#252538;" d="M186.111,81.847c-2.809-0.427-5.19,1.961-4.756,4.769c0.27,1.75,1.702,3.178,3.453,3.444
								c2.809,0.426,5.19-1.961,4.757-4.769C189.293,83.541,187.861,82.113,186.111,81.847z"/>
						</g>
						<g>
							<path style="fill:#252538;" d="M190.582,75.201l-5.357-1.682c-1.174-0.369-2.425,0.284-2.793,1.459
								c-0.368,1.174,0.285,2.425,1.459,2.793l5.357,1.682c1.174,0.369,2.425-0.285,2.793-1.459
								C192.409,76.82,191.756,75.57,190.582,75.201z"/>
						</g>
					</g>
				</g>
				<g>
					<path style="fill:#9E6461;" d="M170.762,99.292l6.603,0.007c1.089,0.001,1.973-0.881,1.974-1.97l0,0
						c0.001-1.089-0.881-1.973-1.97-1.974l-6.603-0.007c-1.089-0.001-1.973,0.881-1.974,1.97l0,0
						C168.791,98.407,169.673,99.291,170.762,99.292z"/>
					<path style="fill:#D88D87;" d="M174.051,99.983L174.051,99.983c1.619,0.002,2.933-1.309,2.935-2.929l0.011-11.183
						c0.002-1.619-1.31-2.933-2.929-2.935l0,0c-1.619-0.002-2.933,1.31-2.935,2.929l-0.011,11.183
						C171.121,98.667,172.432,99.981,174.051,99.983z"/>
				</g>
				<polygon style="fill:#D88D87;" points="152.357,64.02 195.775,64.064 195.766,71.79 152.356,64.968 				"/>
				<g>
					<g>
						<path style="fill:#252538;" d="M168.481,105.972c2.589-0.658,6.19-1.757,9.527-3.412c2.196-1.089,4.45,1.62,3.479,4.221
							c-1.034,2.767-3.057,5.458-6.992,6.178c-3.225,0.59-5.38-0.073-6.818-1.153C165.643,110.275,166.173,106.558,168.481,105.972z
							"/>
					</g>
					<g>
						<path style="fill:#FF9292;" d="M174.495,112.958c3.934-0.72,5.958-3.412,6.992-6.178c0.146-0.39,0.211-0.781,0.223-1.162
							c-1.468-0.503-3.371-0.584-5.837,0.2c-3.809,1.212-5.455,4.133-6.109,7.004c-0.001,0.006-0.001,0.011-0.002,0.017
							C171.004,113.209,172.553,113.314,174.495,112.958z"/>
					</g>
					<g>
						<path style="fill:#FFABAB;" d="M172.296,109.896c0.453,0.633,1.943,0.384,3.328-0.556c1.385-0.94,2.141-2.216,1.688-2.849
							c-0.453-0.633-1.943-0.384-3.328,0.556C172.598,107.988,171.843,109.263,172.296,109.896z"/>
					</g>
					<g>
						<path style="fill:#FFFFFF;" d="M168.481,105.972c2.589-0.658,6.19-1.757,9.527-3.412c1.348-0.669,2.716,0.097,3.348,1.389
							c-1.863,2.004-4.83,3.762-8.393,4.757c-2.285,0.638-4.522,0.88-6.528,0.775C166.279,107.955,167.026,106.341,168.481,105.972z
							"/>
					</g>
				</g>
			</g>
		</g>
	</g>
	<g>
		<path style="fill:#C1E1EA;" d="M267.416,128.477v-5c0-52.56,42.761-95.321,95.32-95.321c52.561,0,95.321,42.761,95.321,95.321v5
			H267.416z"/>
		<path style="fill:#FFFFFF;" d="M269.416,126.476v-3c0-51.457,41.863-93.321,93.32-93.321c51.458,0,93.321,41.864,93.321,93.321v3
			H269.416z"/>
		<g>
			<path style="fill:#74A844;" d="M362.736,33.156c-49.883,0-90.321,40.438-90.321,90.321h180.641
				C453.057,73.593,412.619,33.156,362.736,33.156z"/>
			<path style="fill:#A7CC48;" d="M276.508,119.476c2.095-45.75,39.971-82.321,86.228-82.321c46.259,0,84.135,36.571,86.229,82.321
				H276.508z"/>
			<path style="fill:#74A844;" d="M385.513,88.508c-18.173-12.68-43.185-8.227-55.866,9.946c-5.31,7.611-7.605,16.421-7.156,25.022
				h80.129C403.295,110.119,397.289,96.725,385.513,88.508z"/>
			<path style="fill:#F4B54E;" d="M453.057,123.476c0-49.883-40.438-90.321-90.321-90.321v90.321H453.057z"/>
			<path style="fill:#FFCC71;" d="M362.736,37.156v82.321h86.229C446.871,73.727,408.995,37.156,362.736,37.156z"/>
			<path style="fill:#93257C;" d="M426.603,59.61l-63.866,63.866h90.321C453.057,98.535,442.948,75.955,426.603,59.61z"/>
			<path style="fill:#EF3364;" d="M366.736,119.476h82.229c-1.017-22.212-10.485-42.244-25.235-56.994L366.736,119.476z"/>
			<path style="fill:#4E77D1;" d="M298.87,59.61l63.866,63.866h-90.321C272.416,98.535,282.525,75.955,298.87,59.61z"/>
			<path style="fill:#7FAAF7;" d="M276.508,119.476h82.229l-56.994-56.994C286.992,77.232,277.525,97.264,276.508,119.476z"/>
			<path style="fill:#4E77D1;" d="M329.647,98.454c-5.31,7.611-7.605,16.421-7.156,25.022h40.245l-29.477-29.477
				C331.971,95.379,330.759,96.86,329.647,98.454z"/>
			<path style="fill:#F4B54E;" d="M385.513,88.508c-6.95-4.849-14.899-7.184-22.777-7.213v42.181h39.884
				C403.295,110.119,397.289,96.725,385.513,88.508z"/>
			<path style="fill:#93257C;" d="M402.621,123.476c0.536-10.613-3.15-21.244-10.595-29.289l-29.289,29.289H402.621z"/>
		</g>
		<g>
			<path style="fill:#C1E1EA;" d="M354.271,114.085c3.192-4.574,9.487-5.695,14.062-2.504c4.574,3.192,5.695,9.487,2.503,14.062
				c-3.192,4.574-9.487,5.695-14.062,2.503C352.2,124.955,351.079,118.659,354.271,114.085z"/>
			<path style="fill:#252538;" d="M381.082,93.301L381.082,93.301c1.315,0.918,1.637,2.727,0.72,4.042l-15.21,21.799l-4.762-3.323
				l15.21-21.799C377.958,92.706,379.767,92.383,381.082,93.301z"/>
			<path style="fill:#FFFFFF;" d="M357.851,116.583c1.812-2.597,5.386-3.233,7.983-1.421c2.597,1.812,3.233,5.386,1.421,7.983
				c-1.812,2.597-5.386,3.233-7.983,1.421C356.676,122.754,356.039,119.18,357.851,116.583z"/>
		</g>
	</g>
	<g>
		<path style="fill:#7FAAF7;" d="M306.983,177.641h-32.864l0,0c0-18.15,14.714-32.864,32.864-32.864l0,0V177.641z"/>
		<path style="fill:#4E77D1;" d="M289.296,177.641L289.296,177.641h17.688v-17.687C297.215,159.954,289.296,167.873,289.296,177.641
			z"/>
	</g>
	<g>
		<path style="fill:#C1E1EA;" d="M450.445,177.641H322.361c-3.1,0-5.612-2.513-5.612-5.612v-21.64c0-3.1,2.513-5.612,5.612-5.612
			h128.084c3.1,0,5.612,2.513,5.612,5.612v21.64C456.057,175.129,453.545,177.641,450.445,177.641z"/>
		<path style="fill:#97B9C6;" d="M322.361,177.641h128.084c3.1,0,5.612-2.513,5.612-5.612v-10.812H316.749v10.812
			C316.749,175.129,319.261,177.641,322.361,177.641z"/>
		<path style="fill:#FFFFFF;" d="M322.361,173.642c-0.889,0-1.612-0.723-1.612-1.612v-21.64c0-0.889,0.724-1.612,1.612-1.612
			h128.084c0.889,0,1.612,0.723,1.612,1.612v21.64c0,0.889-0.724,1.612-1.612,1.612H322.361z"/>
		
			<rect x="375.971" y="97.555" transform="matrix(-1.836970e-16 1 -1 -1.836970e-16 547.6126 -225.1935)" style="fill:#E1F7FF;" width="20.864" height="127.309"/>
		<g>
			<rect x="323.984" y="151.927" style="fill:#7FAAF7;" width="11.234" height="18.581"/>
			<rect x="336.623" y="151.927" style="fill:#7FAAF7;" width="11.234" height="18.581"/>
			<rect x="349.262" y="151.927" style="fill:#7FAAF7;" width="11.234" height="18.581"/>
			<rect x="361.9" y="151.927" style="fill:#7FAAF7;" width="11.234" height="18.581"/>
			<rect x="374.539" y="151.927" style="fill:#7FAAF7;" width="11.234" height="18.581"/>
			<rect x="387.177" y="151.927" style="fill:#7FAAF7;" width="11.234" height="18.581"/>
			<rect x="399.816" y="151.927" style="fill:#7FAAF7;" width="11.234" height="18.581"/>
			<rect x="323.984" y="161.217" style="fill:#4E77D1;" width="11.234" height="9.29"/>
			<rect x="336.623" y="161.217" style="fill:#4E77D1;" width="11.234" height="9.29"/>
			<rect x="349.262" y="161.217" style="fill:#4E77D1;" width="11.234" height="9.29"/>
			<rect x="361.9" y="161.217" style="fill:#4E77D1;" width="11.234" height="9.29"/>
			<rect x="374.539" y="161.217" style="fill:#4E77D1;" width="11.234" height="9.29"/>
			<rect x="387.177" y="161.217" style="fill:#4E77D1;" width="11.234" height="9.29"/>
			<rect x="399.816" y="161.217" style="fill:#4E77D1;" width="11.234" height="9.29"/>
			<rect x="412.454" y="151.927" style="fill:#C1E1EA;" width="11.234" height="18.581"/>
			<rect x="425.093" y="151.927" style="fill:#C1E1EA;" width="11.234" height="18.581"/>
			<rect x="437.731" y="151.927" style="fill:#C1E1EA;" width="11.234" height="18.581"/>
		</g>
	</g>
	<g>
		<path style="fill:#A7CC48;" d="M306.983,221.907h-32.864v0c0-18.15,14.714-32.864,32.864-32.864l0,0V221.907z"/>
		<path style="fill:#74A844;" d="M289.296,221.907L289.296,221.907h17.688v-17.688C297.215,204.219,289.296,212.138,289.296,221.907
			z"/>
	</g>
	<g>
		<path style="fill:#C1E1EA;" d="M450.445,221.907H322.361c-3.1,0-5.612-2.513-5.612-5.612v-21.64c0-3.1,2.513-5.612,5.612-5.612
			h128.084c3.1,0,5.612,2.513,5.612,5.612v21.64C456.057,219.394,453.545,221.907,450.445,221.907z"/>
		<path style="fill:#97B9C6;" d="M322.361,221.907h128.084c3.1,0,5.612-2.513,5.612-5.612v-10.812H316.749v10.812
			C316.749,219.394,319.261,221.907,322.361,221.907z"/>
		<path style="fill:#FFFFFF;" d="M322.361,217.907c-0.889,0-1.612-0.723-1.612-1.612v-21.64c0-0.889,0.724-1.612,1.612-1.612
			h128.084c0.889,0,1.612,0.723,1.612,1.612v21.64c0,0.889-0.724,1.612-1.612,1.612H322.361z"/>
		
			<rect x="375.971" y="141.821" transform="matrix(-1.836970e-16 1 -1 -1.836970e-16 591.8781 -180.9281)" style="fill:#E1F7FF;" width="20.864" height="127.309"/>
		<g>
			<rect x="323.984" y="196.193" style="fill:#A7CC48;" width="11.234" height="18.581"/>
			<rect x="336.623" y="196.193" style="fill:#A7CC48;" width="11.234" height="18.581"/>
			<rect x="349.262" y="196.193" style="fill:#A7CC48;" width="11.234" height="18.581"/>
			<rect x="361.9" y="196.193" style="fill:#A7CC48;" width="11.234" height="18.581"/>
			<rect x="374.539" y="196.193" style="fill:#C1E1EA;" width="11.234" height="18.581"/>
			<rect x="387.177" y="196.193" style="fill:#C1E1EA;" width="11.234" height="18.581"/>
			<rect x="399.816" y="196.193" style="fill:#C1E1EA;" width="11.234" height="18.581"/>
			<rect x="323.984" y="205.483" style="fill:#74A844;" width="11.234" height="9.29"/>
			<rect x="336.623" y="205.483" style="fill:#74A844;" width="11.234" height="9.29"/>
			<rect x="349.262" y="205.483" style="fill:#74A844;" width="11.234" height="9.29"/>
			<rect x="361.9" y="205.483" style="fill:#74A844;" width="11.234" height="9.29"/>
			<rect x="412.454" y="196.193" style="fill:#C1E1EA;" width="11.234" height="18.581"/>
			<rect x="425.093" y="196.193" style="fill:#C1E1EA;" width="11.234" height="18.581"/>
			<rect x="437.731" y="196.193" style="fill:#C1E1EA;" width="11.234" height="18.581"/>
		</g>
	</g>
	<g>
		<path style="fill:#FFCC71;" d="M306.983,266.172h-32.864l0,0c0-18.15,14.714-32.864,32.864-32.864l0,0V266.172z"/>
		<path style="fill:#F4B54E;" d="M289.296,266.172L289.296,266.172l17.688,0v-17.687
			C297.215,248.485,289.296,256.404,289.296,266.172z"/>
	</g>
	<g>
		<path style="fill:#C1E1EA;" d="M450.445,266.172H322.361c-3.1,0-5.612-2.513-5.612-5.612v-21.64c0-3.1,2.513-5.612,5.612-5.612
			h128.084c3.1,0,5.612,2.513,5.612,5.612v21.64C456.057,263.66,453.545,266.172,450.445,266.172z"/>
		<path style="fill:#97B9C6;" d="M322.361,266.172h128.084c3.1,0,5.612-2.513,5.612-5.612v-10.812H316.749v10.812
			C316.749,263.66,319.261,266.172,322.361,266.172z"/>
		<path style="fill:#FFFFFF;" d="M322.361,262.173c-0.889,0-1.612-0.723-1.612-1.612v-21.64c0-0.889,0.724-1.612,1.612-1.612
			h128.084c0.889,0,1.612,0.723,1.612,1.612v21.64c0,0.889-0.724,1.612-1.612,1.612H322.361z"/>
		
			<rect x="375.971" y="186.086" transform="matrix(-1.836970e-16 1 -1 -1.836970e-16 636.1437 -136.6625)" style="fill:#E1F7FF;" width="20.864" height="127.309"/>
		<g>
			<rect x="323.984" y="240.458" style="fill:#FFCC71;" width="11.234" height="18.581"/>
			<rect x="336.623" y="240.458" style="fill:#FFCC71;" width="11.234" height="18.581"/>
			<rect x="349.262" y="240.458" style="fill:#FFCC71;" width="11.234" height="18.581"/>
			<rect x="361.9" y="240.458" style="fill:#FFCC71;" width="11.234" height="18.581"/>
			<rect x="374.539" y="240.458" style="fill:#FFCC71;" width="11.234" height="18.581"/>
			<rect x="387.177" y="240.458" style="fill:#FFCC71;" width="11.234" height="18.581"/>
			<rect x="399.816" y="240.458" style="fill:#FFCC71;" width="11.234" height="18.581"/>
			<rect x="323.984" y="249.748" style="fill:#F4B54E;" width="11.234" height="9.29"/>
			<rect x="336.623" y="249.748" style="fill:#F4B54E;" width="11.234" height="9.29"/>
			<rect x="349.262" y="249.748" style="fill:#F4B54E;" width="11.234" height="9.29"/>
			<rect x="361.9" y="249.748" style="fill:#F4B54E;" width="11.234" height="9.29"/>
			<rect x="374.539" y="249.748" style="fill:#F4B54E;" width="11.234" height="9.29"/>
			<rect x="387.177" y="249.748" style="fill:#F4B54E;" width="11.234" height="9.29"/>
			<rect x="399.816" y="249.748" style="fill:#F4B54E;" width="11.234" height="9.29"/>
			<rect x="412.454" y="240.458" style="fill:#FFCC71;" width="11.234" height="18.581"/>
			<rect x="412.454" y="249.74" style="fill:#F4B54E;" width="11.234" height="9.299"/>
			<rect x="425.093" y="240.458" style="fill:#C1E1EA;" width="11.234" height="18.581"/>
			<rect x="437.731" y="240.458" style="fill:#C1E1EA;" width="11.234" height="18.581"/>
		</g>
	</g>
	<g>
		<path style="fill:#EF3364;" d="M306.983,310.438h-32.864l0,0c0-18.15,14.714-32.864,32.864-32.864l0,0V310.438z"/>
		<path style="fill:#93257C;" d="M289.296,310.438L289.296,310.438h17.688V292.75C297.215,292.75,289.296,300.669,289.296,310.438z"
			/>
	</g>
	<g>
		<path style="fill:#C1E1EA;" d="M450.445,310.438H322.361c-3.1,0-5.612-2.513-5.612-5.612v-21.64c0-3.1,2.513-5.612,5.612-5.612
			h128.084c3.1,0,5.612,2.513,5.612,5.612v21.64C456.057,307.925,453.545,310.438,450.445,310.438z"/>
		<path style="fill:#97B9C6;" d="M322.361,310.438h128.084c3.1,0,5.612-2.513,5.612-5.612v-10.812H316.749v10.812
			C316.749,307.925,319.261,310.438,322.361,310.438z"/>
		<path style="fill:#FFFFFF;" d="M322.361,306.438c-0.889,0-1.612-0.723-1.612-1.612v-21.64c0-0.889,0.724-1.612,1.612-1.612
			h128.084c0.889,0,1.612,0.723,1.612,1.612v21.64c0,0.889-0.724,1.612-1.612,1.612H322.361z"/>
		
			<rect x="375.971" y="230.352" transform="matrix(-1.836970e-16 1 -1 -1.836970e-16 680.4092 -92.3969)" style="fill:#E1F7FF;" width="20.864" height="127.309"/>
		<g>
			<rect x="323.984" y="284.724" style="fill:#EF3364;" width="11.234" height="18.581"/>
			<rect x="336.623" y="284.724" style="fill:#EF3364;" width="11.234" height="18.581"/>
			<rect x="349.262" y="284.724" style="fill:#EF3364;" width="11.234" height="18.581"/>
			<rect x="361.9" y="284.724" style="fill:#EF3364;" width="11.234" height="18.581"/>
			<rect x="374.539" y="284.724" style="fill:#EF3364;" width="11.234" height="18.581"/>
			<rect x="387.177" y="284.724" style="fill:#C1E1EA;" width="11.234" height="18.581"/>
			<rect x="399.816" y="284.724" style="fill:#C1E1EA;" width="11.234" height="18.581"/>
			<rect x="323.984" y="294.014" style="fill:#93257C;" width="11.234" height="9.29"/>
			<rect x="336.623" y="294.014" style="fill:#93257C;" width="11.234" height="9.29"/>
			<rect x="349.262" y="294.014" style="fill:#93257C;" width="11.234" height="9.29"/>
			<rect x="361.9" y="294.014" style="fill:#93257C;" width="11.234" height="9.29"/>
			<rect x="374.539" y="294.014" style="fill:#93257C;" width="11.234" height="9.29"/>
			<rect x="412.454" y="284.724" style="fill:#C1E1EA;" width="11.234" height="18.581"/>
			<rect x="425.093" y="284.724" style="fill:#C1E1EA;" width="11.234" height="18.581"/>
			<rect x="437.731" y="284.724" style="fill:#C1E1EA;" width="11.234" height="18.581"/>
		</g>
	</g>
	<g>
		<line style="fill:none;stroke:#EF3364;stroke-width:4;stroke-miterlimit:10;" x1="65.92" y1="62.53" x2="65.92" y2="414.925"/>
		<polygon style="fill:#EF3364;" points="65.92,48.25 54.306,66.476 65.92,66.476 77.535,66.476 		"/>
		<polygon style="fill:#EF3364;" points="65.92,423.909 77.535,405.683 65.92,405.683 54.306,405.683 		"/>
	</g>
	<g>
		
			<ellipse transform="matrix(0.9997 -0.0249 0.0249 0.9997 -5.9093 1.7128)" style="fill:#A7CC48;" cx="65.92" cy="238.479" rx="24.187" ry="24.187"/>
		<path style="fill:#74A844;" d="M41.732,238.479c0,13.358,10.829,24.188,24.188,24.188v-48.375
			C52.562,214.291,41.732,225.12,41.732,238.479z"/>
		<polyline style="fill:none;stroke:#FFFFFF;stroke-width:5.0959;stroke-miterlimit:10;" points="54.315,238.295 62.114,246.094 
			79.615,228.592 		"/>
	</g>
	<g>
		<path style="fill:#93257C;" d="M439.76,449.878H309.318c-5.465,0-10.053-4.114-10.647-9.547l-6.649-70.375
			c-0.692-6.338,4.271-11.873,10.647-11.873h143.74c6.375,0,11.339,5.535,10.647,11.873l-6.649,70.375
			C449.813,445.764,445.224,449.878,439.76,449.878z"/>
		<path style="fill:#EF3364;" d="M439.76,439.92H309.318c-5.465,0-10.053-4.114-10.647-9.547l-6.649-70.375
			c-0.692-6.338,4.271-11.873,10.647-11.873h143.74c6.375,0,11.339,5.535,10.647,11.873l-6.649,70.375
			C449.813,435.806,445.224,439.92,439.76,439.92z"/>
		
			<ellipse transform="matrix(0.8107 -0.5854 0.5854 0.8107 -140.5351 287.6137)" style="fill:#EF3364;" cx="374.539" cy="361.15" rx="38.096" ry="38.096"/>
		<path style="fill:#93257C;" d="M405.584,361.15c0,17.146-13.9,16.702-31.045,16.702c-17.146,0-31.045,0.444-31.045-16.702
			s13.9-31.045,31.045-31.045C391.684,330.105,405.584,344.004,405.584,361.15z"/>
		<path style="fill:#C1E1EA;" d="M372.029,373.853c-7.978,0-14.421-0.142-18.72-1.932c-2.876-1.196-5.815-3.412-5.815-10.771
			c0-14.913,12.132-27.045,27.045-27.045c14.913,0,27.046,12.132,27.046,27.045c0,11.608-6.728,12.703-24.536,12.703H372.029z"/>
		<path style="fill:#FFFFFF;" d="M372.029,371.853c-7.75,0-13.993-0.131-17.951-1.778c-2.218-0.923-4.584-2.449-4.584-8.925
			c0-13.81,11.235-25.045,25.045-25.045c13.811,0,25.046,11.235,25.046,25.045c0,9.103-3.37,10.703-22.536,10.703H372.029z"/>
		<path style="fill:#6C4AAF;" d="M377.553,367.245c-1.937,1.735-4.913,1.572-6.649-0.364c-1.735-1.937-1.572-4.913,0.364-6.649
			c1.937-1.735,14.174-6.379,14.174-6.379S379.49,365.51,377.553,367.245z"/>
		<path style="fill:#F2729A;" d="M425.668,431.082H323.409c-8.116,0-14.694-6.579-14.694-14.694v-17.933
			c0-8.115,6.579-14.694,14.694-14.694h102.259c8.115,0,14.694,6.579,14.694,14.694v17.933
			C440.362,424.503,433.783,431.082,425.668,431.082z"/>
	</g>
</g>
</svg>
